/* XPM */
static char * coin_xpm[] = {
/* columns rows colors chars-per-pixel */
"16 16 9 1",
" 	c None",
".	c #000000",
"+	c #333333",
"@	c #666600",
"#	c #999900",
"$	c #CCCC00",
"%	c #FFFF00",
"&	c #FFFF66",
"*	c #FFFFFF",
/* pixels */
"                ",
"       ..       ",
"     .+@#.      ",
"    .%&&&@.     ",
"   .%&&&&&@.    ",
"  .%&&&&&&&@.   ",
" .%&&&&&&&&&@.  ",
" .%&&&&&&&&&@.  ",
" .%&&&&&&&&&@.  ",
"  .%&&&&&&&@.   ",
"   .%&&&&&@.    ",
"    .%&&&@.     ",
"     .#@#.      ",
"       ..       ",
"                ",
"                "
};