/* XPM */
static char * coin_xpm[] = {
/* columns rows colors chars-per-pixel */
"32 32 10 1",
" 	c None",
".	c #F8F8F8",
"+	c #E0E0E0",
"@	c #C0C0C0",
"#	c #A0A0A0",
"$	c #808080",
"%	c #606060",
"&	c #404040",
"*	c #202020",
"=	c #000000",
/* pixels */
"................................",
"................................",
"................................",
"................................",
"........+++++...................",
"......++@@@@@++.................",
".....+@@@@@@@@@+................",
"....++@@@@@@@@@++...............",
"...++@@@@@@@@@@@++..............",
"..++@@@@@++@@@@@@++.............",
"..+@@@@@....@@@@@@@+............",
".+@@@@@......@@@@@@@+...........",
".+@@@@........@@@@@@@+..........",
".+@@@@........@@@@@@@+..........",
".+@@@@........@@@@@@@+..........",
".+@@@@........@@@@@@@+..........",
".+@@@@........@@@@@@@+..........",
".+@@@@........@@@@@@@+..........",
".+@@@@........@@@@@@@+..........",
".+@@@@........@@@@@@@+..........",
".+@@@@........@@@@@@@+..........",
".+@@@@........@@@@@@@+..........",
".+@@@@........@@@@@@@+..........",
".+@@@@@......@@@@@@@+...........",
".+@@@@@....@@@@@@@+.............",
"..+@@@@@++@@@@@@++..............",
"..++@@@@@@@@@@@++...............",
"...++@@@@@@@@@++................",
"....++@@@@@@@++.................",
"......+++++.....................",
"................................",
"................................",
"................................"
};
