/* XPM */
static char * four_xpm[] = {
"10 10 2 1",
" 	c None",
".	c #FFFF00",
"          ",
"     ..   ",
"    ...   ",
"   ....   ",
"  .. ..   ",
" ..  ..   ",
" ........ ",
" ........ ",
"     ..   ",
"     ..   ",
"          "};