/* XPM */
static char * nine_xpm[] = {
"10 10 2 1",
" 	c None",
".	c #FFFF00",
"          ",
"   ....   ",
"  ......  ",
" ...  ... ",
" ...  ... ",
"  ......  ",
"   .....  ",
"      ..  ",
" ...  ..  ",
"  ....    ",
"          "};