/* XPM */
static char * layout_xpm[] = {
"145 34 12 1",
" 	c #000000",
".	c #FF3400",
"+	c #BA7500",
"@	c #FF9600",
"#	c #FFFFFF",
"$	c #BAB6AE",
"%	c #6120CF",
"&	c #FFF700",
"*	c #BAB200",
"=	c #6151CB",
"-	c #714900",
";	c #716500",
"   ............................................................................................................................................  ",
" ...                                                                                                                                          .. ",
"... +@@@@@@@@@@@@@@@@@@@@@@@@@@@@@@@@@@@@@@@@@@@@@@@@@@@@@@@@@@@@@@@@@@@@@@@@@@@@@@@@@@@@@@@@@@@@@@@@@@@@@@@@@@@@@@@@@@@@@@@@@@@@@@@@@@@@@@@@+ ..",
".. +@@@@@@@@@@@@@@@@@@@@@@@@@+@@@@@@@@@@@@@@@@@@@@@@@@@@@@@@@@@@@@@@@@@@@@@@@@+@@@+@@@@@@@@@@@@@@+@@@@@@@@@@+@@@@@@@@@@@@@@@@@@@@@@@@@@@@@@@@@+ .",
".. @@            +@@@@@@@@@@@ @+@@@@@@@@@@@@@@@@@@@@@@@@@@@@@@@@@@@@@@@@@@@@@@ +@@ +@@@@@@@@@@@@+ @@@@@@@@@@ +@@@@@@@@@+@@@@@@@@@@@@@@@@@@@@@@@ .",
".. @@ ##########$  +@@@@@@@@+ + @+@@@@@@@@@@@+        +@@@@@@@@@@@@@@@@@@@@@@@  +@  @@@@@@@@@@@+  +@@@@@@@@+  @@+@@@@@@ +@@+@@@@        @@@@@@@ .",
".. @@               +@@@@@@@ $  @ @@@@@@@@@+  $##      +@@@@@@@@@@@@@@@@@@@@@@ # + %+@@@@@@@@@+ $  @+@@@@@@ $ +@ @@@@@@  +@ +@@@ ###### @@@@@@@ .",
".. @@  &&&&&&&&&&&*   +@@@@+ # *+ +@@@@@@@+ $##  &&&&&*  +@@@@@@@@@@@@@@@@@@@@ #   = +@@@@@@@+ $#  @ @@@@@+ #* + +@@@@@ $ +  +@@ #        @@@@@ .",
".. @@  &&&&&&&&&&&&&*  @@@@ $# & % @@@@@@+ $#  *&&&&&&&&* +@@@@@@@@@@@@@@@@@@@ # * %% +@@@@@+ $# * + @@@@@ $#&  % @@@@@ #   = +@ # &&&&&& @@@@@ .",
".. @@  &&&&&&&&&&&&&&& +@@ $# && =% @@@@@$# *&&&&&&&&&&&&&* +@@@@@@@@@@@@@@@@@ # &&*%=% +@@+$# *&& = @@@@ $# && =% @@@@ # &* %=+ # &&&&&& = @@@ .",
".. @@  &&&&&&&&&&&&&&&* @+ # *&&* = +@@@+# *&&&&&&&&&&&&&&&* +@@@@@@@@@@@@@@@@ # &&& %=% ++ # *&&& = @@@+ # *&&* = +@@@ # &&* %  # &&&&&& = @@@ .",
".. @@  &&&&&&&& &&&&&&& + $# &&&& =% @@@ # &&&&&&&&&&&&&&&&&  @@@@@@@@@@@@@@@@ # &&&* %=%  $ *&&&& = @@@ $# &&&& =% @@@ # &&&* = $ &&&&&& = @@@ .",
".. @@  &&&&&&&& & && &&%  # *&&&&* = +@+  *&&&&&&&&&&&&&&&*  % @@         @@@@ # &&&&* %=% #*&&&&& = @@+ # *&&&&* = +@@ # &&&&*%=  &&&&&& = @@@ .",
".. @@  &&&&&&&&&* && &&= $# &&&&&& =% @ $ &&&&&&&&&&&&&&&* %== @@ ####### @@@@ # &&&&&* %=% &&&&&& = @@ $# &&&&&& =% @@ # &&&&& %= &&&&&& = @@@ .",
".. @@  &&&&&&&&  &&* &&= # *&&&&&&* = + #*&&&&&&&&&&&&&*  ==% -@@          @@@ # &&&&&&* % *&&&&&& = @+ # *&&&&&&* = +@ # &&&&&* % &&&&&& = @@@ .",
".. @@  &&&&&&&&&&&* *&*= # &&&&&&&& =%  #&&&&&&&&&&&&*  %=%  +@@@  &&&&&&&&@@@ # &&&&&&&* *&&&&&&& = @ $# &&&&&&&& =% @ # &&&&&&*  &&&&&& = @@@ .",
".. @@  &&&&&&&&&*  *&& =  *&&&&&&&&* =  #&&&&&&&&&&*% %==% +@@@@@  &&&&&&&&  @ # &&&&&&&&*&&&&&&&& = + # *&&&&&&&&* = @ # &&&&&&&* &&&&&& = @@@ .",
".. @@  &&&&&     *&&&* %  &&&&; &&&& =% #&&&&&&&&&; %==%  @@@@@@@  &&&&&&&&= @ # &&&&&&&&&&&&&&&&& =  $# &&&& ;&&&& =%@ # &&&&&&&&*&&&&&& = @@@ .",
".. @@  &&&&& &&&&&*  %=  &&&&&; & &&& =% &&&&&&&&&&&&*  +@@@@@@@@@ &&&&&&&&= @ # &&&&&&&&&&&&&&&&& = $# &&&&& ;& &&& =  # &&&&&&&&&&&&&&& = @@@ .",
".. @@  &&&&& &&    %==% *&&&&&&&; &&&* = *&&&&&&&&&&&&&*  @@@@@@@@         = @ # &&&&&&&&&&&&&&&&& = # *&&&&&&&; &&&*   # &&&&&&&&&&&&&&& = @@@ .",
".. @@  &&&&& &&=====%   &&&&&&&* *&&&& =% &&&&&&&&&&&&&&&* +@@@@@@@@ ======= @ # &&&&&&&&&&&&&&&&& = # &&&&&&*  *&&&& % # &&&&&&&&&&&&&&& = @@@ .",
".. @@  &&&&& &&=      #*&&&&&&&&&&&&&&* = *&&&&&&&&&&&&&&&* +@@@@@@@         @ # &&&&&&&&&&&&&& && =  *&&&&&&&&&&&&&&*= # &&&&&&&&&&&&&&& = @@@ .",
".. @@  &&&&& &&= @@@ $#&&&&&&&&&&&&&;&& =  &&&&&&&&&&&&&&&&& @@@@@@@@@@@@@@@@@ # &&&&&&&&&&&&&& && =  &&&&&&&&&&&&&;&&= # &&&&&&&&&&&&&&& = @@@ .",
".. @@  &&&&& &&= @@+ # &&&&&&&&&&&&& *&*   *&&&&&&&&&&&&&&&* +@@@@@@@@@@@@@@@@ # &&&&&&&&&&&&&& && = *&&&&&&&&&&&&& *& =  &&&&&&&&&&&&&&& = @@@ .",
".. @@  &&    &&= @+ $# &&&&&&&&&*    ;&& %  *&&&&&&&&&&&&&* % +@@@@@@@@@@@@@@@ # &&&&&&&&&&&    && = &&&&&&&&&&*    ;& =% &&&&&&&&&    && = @@@ .",
".. @@  &&&&&&&&= +    *&&&&&&&&&&&&&&&&&*=   *&&&&&&&&&&&& %=% @@@@@@@@@@@@@@@   &&&&&&&&&&&&&&&&& = &&&&&&&&&&&&&&&&&* = &&&&&&&&&&&&&&& = @@@ .",
".. @@@         = @@+                      = -+   &&&&&*  %=% +@@@@@@@@@@@@@@@@@@                                                          = @@@ .",
".. @@@@@ ======= @@@@@+===================== ++        %==  +@@@@@@@@@@@@@@@@@@@@@ ======================================== =============== @@@ .",
".. @@@@@         @@@@+                        +@+ %=====% +@@@@@@@@@@@@@@@@@@@@@@@                                                          @@@ .",
".. +@@@@@@@@@@@@@@@@@@@@@@@@@@@@@@@@@@@@@@@@@@@@@+       +@@@@@@@@@@@@@@@@@@@@@@@@@@@@@@@@@@@@@@@@@@@@@@@@@@@@@@@@@@@@@@@@@@@@@@@@@@@@@@@@@@@@+ .",
"... +@@@@@@@@@@@@@@@@@@@@@@@@@@@@@@@@@@@@@@@@@@@@@@@@@@@@@@@@@@@@@@@@@@@@@@@@@@@@@@@@@@@@@@@@@@@@@@@@@@@@@@@@@@@@@@@@@@@@@@@@@@@@@@@@@@@@@@@@+ ..",
" ...                                                                                                                                          .. ",
"  .............................................................................................................................................. ",
"   ............................................................................................................................................  "};
