/* XPM */
static char * path_with_coins_xpm[] = {
/* columns rows colors chars-per-pixel */
"32 32 10 1",
" 	c None",
".	c #000000",
"+	c #333333",
"@	c #666600",
"#	c #999900",
"$	c #CCCC00",
"%	c #FFFF00",
"&	c #FFFF66",
"*	c #FFFFFF",
"=	c #666666",
/* pixels */
"                                ",
"                                ",
"                                ",
"                                ",
"                                ",
"                                ",
"                                ",
"                                ",
"                                ",
"                                ",
"                                ",
"            ..........          ",
"           ............         ",
"           ...      ...         ",
"           ...  %%  ...         ",
"           ... &%%& ...         ",
"           ...  %%  ...         ",
"           ...      ...         ",
"           ............         ",
"            ..........          ",
"                                ",
"                                ",
"                                ",
"                                ",
"                                ",
"                                ",
"                                ",
"                                ",
"                                ",
"                                ",
"                                ",
"                                ",
"                                "
};
