/* XPM */
static char * black_hole2_xpm[] = {
"32 32 256 2",
"  	c #86FBDA",
". 	c #FFDD54",
"+ 	c #A8133B",
"@ 	c #EBEB93",
"# 	c #C2A16E",
"$ 	c #B13C23",
"% 	c #310812",
"& 	c #F8E157",
"* 	c #FED650",
"= 	c #F5621B",
"- 	c #F3DE54",
"; 	c #ED6622",
"> 	c #FFAA32",
", 	c #D4C842",
"' 	c #AF1E3B",
") 	c #D7CB48",
"! 	c #8A804B",
"~ 	c #D5C947",
"{ 	c #B92E3A",
"] 	c #FCEB72",
"^ 	c #FFE454",
"/ 	c #A50C3C",
"( 	c #375F6B",
"_ 	c #7E7649",
": 	c #6B3A32",
"< 	c #F0D857",
"[ 	c #D85723",
"} 	c #C04823",
"| 	c #F06923",
"1 	c #CC6433",
"2 	c #E7D550",
"3 	c #5EC7BF",
"4 	c #F5FBB8",
"5 	c #523436",
"6 	c #CC5720",
"7 	c #FFE65A",
"8 	c #BDB07C",
"9 	c #858E5E",
"0 	c #FFC946",
"a 	c #C0F29D",
"b 	c #6A4126",
"c 	c #E3EB77",
"d 	c #E66123",
"e 	c #32323E",
"f 	c #FFFA5E",
"g 	c #C54338",
"h 	c #82FEE0",
"i 	c #DACF52",
"j 	c #FDA732",
"k 	c #7E2F19",
"l 	c #D76436",
"m 	c #83D6BD",
"n 	c #CB6747",
"o 	c #FFA52E",
"p 	c #77FFF2",
"q 	c #F6FFCB",
"r 	c #04163E",
"s 	c #8C2323",
"t 	c #851F22",
"u 	c #A3F8BD",
"v 	c #FF7423",
"w 	c #93FCCE",
"x 	c #FDE96A",
"y 	c #AC763C",
"z 	c #FF6F21",
"A 	c #2C0910",
"B 	c #EA9F44",
"C 	c #716B47",
"D 	c #F5FCBC",
"E 	c #E5E27E",
"F 	c #24080D",
"G 	c #F7F59D",
"H 	c #C34F20",
"I 	c #7A102A",
"J 	c #0D143A",
"K 	c #8B1131",
"L 	c #D8EF84",
"M 	c #370A14",
"N 	c #FFB031",
"O 	c #8C1416",
"P 	c #DB6125",
"Q 	c #AC173B",
"R 	c #80F5D9",
"S 	c #FAEE80",
"T 	c #F46C23",
"U 	c #A2053C",
"V 	c #0B062A",
"W 	c #4D473E",
"X 	c #A64F2B",
"Y 	c #68181C",
"Z 	c #8F2423",
"` 	c #FFE85B",
" .	c #9C003D",
"..	c #FFEF5D",
"+.	c #FDE359",
"@.	c #EE5E1E",
"#.	c #FFEB5D",
"$.	c #FAF087",
"%.	c #FCBE54",
"&.	c #030A39",
"*.	c #B3A450",
"=.	c #390A14",
"-.	c #F6F7A7",
";.	c #AABD74",
">.	c #AFC191",
",.	c #8A1A1D",
"'.	c #BC1542",
").	c #1C030E",
"!.	c #FAD06F",
"~.	c #D15937",
"{.	c #FFBF40",
"].	c #A3D1A7",
"^.	c #F9B645",
"/.	c #171C3B",
"(.	c #F4F8B0",
"_.	c #932524",
":.	c #85BCA7",
"<.	c #FBC55F",
"[.	c #450C17",
"}.	c #F17729",
"|.	c #D4C63C",
"1.	c #FFE34F",
"2.	c #F7A53D",
"3.	c #DBD25A",
"4.	c #973C1E",
"5.	c #77FFEB",
"6.	c #6B0E26",
"7.	c #A63523",
"8.	c #F5FAB5",
"9.	c #FFC430",
"0.	c #FFF25F",
"a.	c #F0E86A",
"b.	c #CA4D38",
"c.	c #9D914C",
"d.	c #EDEF9D",
"e.	c #F08F33",
"f.	c #565444",
"g.	c #F5FDC0",
"h.	c #E37A36",
"i.	c #E88234",
"j.	c #E17535",
"k.	c #F8DC84",
"l.	c #825D2E",
"m.	c #F9D67C",
"n.	c #C03A38",
"o.	c #894F49",
"p.	c #2A4558",
"q.	c #F96F23",
"r.	c #EE6B25",
"s.	c #560C1F",
"t.	c #F3852F",
"u.	c #E3DE75",
"v.	c #6ACEBD",
"w.	c #CD5338",
"x.	c #721B1E",
"y.	c #7B1B21",
"z.	c #989D5F",
"A.	c #84102E",
"B.	c #B4263A",
"C.	c #191E3C",
"D.	c #1D203C",
"E.	c #1F243D",
"F.	c #414141",
"G.	c #FFA329",
"H.	c #692418",
"I.	c #561319",
"J.	c #E8E789",
"K.	c #D39055",
"L.	c #81FFF2",
"M.	c #F9F291",
"N.	c #C6A26A",
"O.	c #9CDBB3",
"P.	c #EDD951",
"Q.	c #F59836",
"R.	c #3E0B15",
"S.	c #7DFFE6",
"T.	c #9F1338",
"U.	c #DE5C23",
"V.	c #882123",
"W.	c #6BFFFD",
"X.	c #4B0B1B",
"Y.	c #B9F5A7",
"Z.	c #992A24",
"`.	c #5B1C17",
" +	c #D39F46",
".+	c #D98441",
"++	c #DFD969",
"@+	c #F6FFC3",
"#+	c #FFB631",
"$+	c #FFBA30",
"%+	c #120F31",
"&+	c #FFB83B",
"*+	c #FBEC77",
"=+	c #9F3023",
"-+	c #CF5223",
";+	c #886D63",
">+	c #FAC14A",
",+	c #90EBC8",
"'+	c #4E1018",
")+	c #4C1515",
"!+	c #FA5B11",
"~+	c #ED5419",
"{+	c #7DFFEA",
"]+	c #A86433",
"^+	c #DFD14B",
"/+	c #FDE762",
"(+	c #8AFFEB",
"_+	c #730F28",
":+	c #529895",
"<+	c #45969D",
"[+	c #58A39D",
"}+	c #F7EB9E",
"|+	c #335665",
"1+	c #F89E32",
"2+	c #85AA98",
"3+	c #482B34",
"4+	c #FECE4B",
"5+	c #5F161B",
"6+	c #F7E493",
"7+	c #80E5CB",
"8+	c #DDD55F",
"9+	c #CDBB53",
"0+	c #AAF6B5",
"a+	c #B54B1F",
"b+	c #93874B",
"c+	c #610D22",
"d+	c #7CCBAB",
"e+	c #C84D23",
"f+	c #951234",
"g+	c #868074",
"h+	c #697D62",
"i+	c #BB4323",
"j+	c #95FFFE",
"k+	c #F0F3A6",
"l+	c #FFA022",
"m+	c #232A41",
"n+	c #655E44",
"o+	c #90D09F",
"p+	c #918756",
"q+	c #821C23",
"r+	c #7F1420",
"s+	c #BEAA76",
"t+	c #CFF08E",
"u+	c #DD6F35",
"v+	c #FFB138",
"w+	c #498789",
"x+	c #70FFF5",
"y+	c #8C090C",
"z+	c #8BFFF1",
"A+	c #EB8834",
"B+	c #80FFFC",
"C+	c #B76C37",
"D+	c #111B3C",
"E+	c #B2143E",
"F+	c #270212",
"G+	c #AA143C",
").).).).).).).).).).).).).).).).).).).).).).).).).).).).).).).).",
").).).).).).).).).).).).).).).).).).).).).).).).).).).).).).).).",
").).).).).).).).).).).).M A ).).).).).).).).).).).).).).).).).).",
").).).).).).).).).).).M M M % M % ).M % ).).).).).).).).).).).).",
").).).).).).).).).).% v s s s s _.Z.).).).).).).).).).).).).).).",
").).).).).).).).).).s T | q+t q+s s Z ).M M ).).).).).).).).).).",
").).).).).).).A V.y.q.| | | | | @.@.@.| @.t % M ).).).).).).).).",
").).).).).).).z / M | | s q+| | 7 7 7 7 7 7 s s M M ).).).).).).",
").).).).).).).).M v q+s q.@.0.&.&.&.&.7 5.7 f q._.M =.).).).).).",
").).).).).).).% q.q.s {+| z C.C.C.C.C.C.z+7 0.| s % M M ).).).).",
").).).).).).).% s y+h f C.C.C.C.C.C.C.C.C.C.B+| y.s _.M ).).).).",
").).).).).).M s s h h J C.C.C.C.C.C.C.C.C.C.V 7 | s s M ).).).).",
").).).).).)._.s x+5.&.C.C.C.C.C.C.C.C.C.C.C.C.%+@.t s s ).).).).",
").).).).).% s | ` 7 C.C.C.C.C.C.C.C.C.C.C.C.C.C.7 ; s s % ).).).",
").).).).% s q+| #.f C.C.C.r r r r r | | | | r &.7 @.s A M ).).).",
").).).A s s | | #.5.| ; ; ; ; ` ^ 1.h S.7 7 7 7 7 @.; ; ; ).).).",
").).).A s q+| | {+5.#.7 7 7 ^ S.^ ^ ^ 7 ~+7 7 7 7 7 7 7 7 @.q.).",
").).).A 0.7 7 7 1.1.` @.| | | | | r r r r r r 7 7 h q._.).).).).",
").).).).t v T | #.7 C.C.C.C.C.C.C.C.C.C.C.C.C.C.5.h q.s M ).).).",
").).).).M _.s | T 7 S.C.C.C.C.C.C.C.C.C.C.C.C.7 5.O | s M A ).).",
").).).).=.M s | s @.^ %+C.C.C.C.C.C.C.C.C.C.&.7 = t | s M ).).).",
").).).).).I A q+t | 7 7 B+C.C.C.C.C.C.C.C.z+0.@.| s | s ).).).).",
").).).).M ).).M Z q.| #.7 7 +./.C.C.&.+.7 | | | | s q.s M ).).).",
").).).).M ).).).M v q.q.| r.1.1.7 7 7 0.= s | | | T v _.M ).).).",
").).).).M ).M M E+% s s q.| S.h h h q.s s s | | t % E+M ).).).).",
").).).).).).)._._.s s s | | | | !+= t s s ; q.t A E+Z.).).).).).",
").).).).).).).).).s F+F+F+q+t q+s s s s s s s s M ).).).M ).).).",
").).).).).).).).).).).).F A % _.A _._.s _._._.M ).F ).).).).).).",
").).).).).).).).).).).).).).).% % ).M M % M M ).).).).).).).).).",
").).).).).).).).).).).).).).).).).).).).).).).).).).).).).).).).",
").).).).).).).).).).).).).).).).).).).).).).).).).).).).).).).).",
").).).).).).).).).).).).).).).).).).).).).).).).).).).).).).).)."};
