/* XPM */
static char * door2_xpm[] = {
"32 32 10 1",
" 	c #000000",
".	c #252241",
"+	c #2C3068",
"@	c #3C5393",
"#	c #5CA6E1",
"$	c #6C2B44",
"%	c #96515E",
"&	c #ADA9C7",
"*	c #433986",
"=	c #696DB1",
"                                ",
"                                ",
"          ..+++.+++..           ",
"        .+++@@@.@@@+++.         ",
"       .#@#.+@@.@@+.#@#.        ",
"      +#@@@+.++.++++@@@#+       ",
"     .++@@+.........+@@++.      ",
"     +@+++...........+++@+      ",
"    .@@@..$............@@@.     ",
"    ++++.%$............++++     ",
"    ++...%$..............++     ",
"    +#+.%%$.............+#+     ",
"    +@@.%%$.............@@+     ",
"    +@@.................@@+     ",
"    +++.&&*.............+++     ",
"    +++.==*.............+++     ",
"    +@@.***.............@@+     ",
"    +@@.................@@+     ",
"    +++.%%$.............+++     ",
"    ....%%$................     ",
"    +##.%%$.............##+     ",
"    +@@.%%$.............@@+     ",
"    +@@.................@@+     ",
"    +++.&&*.............+++     ",
"    ....==*................     ",
"    +##.***.............##+     ",
"    +@@.................@@+     ",
"    ....%%$................     ",
"    +#@.%%..............@#+     ",
"   .........................    ",
"                                ",
"                                "};
